<svg xmlns="http://www.w3.org/2000/svg" viewBox="-1 -1 42 42" id="icon-bang"><path d="M14.25 26.25h-2.5v3.5h2.5zm-.5 3h-1.5v-2.5h1.5zm12 .5h2.5v-3.5h-2.5zm.5-3h1.5v2.5h-1.5z" fill="#3f474e"></path><path d="M39.25 27.28v-3h-1v-1.66a1 1 0 0 0 .27-.83c-.11-.69-.93-1.21-1.27-1.4v-1.1h-.5v1.11c-.73.39-1.15.84-1.24 1.34a1.17 1.17 0 0 0 .24.89v1.66h-6.5v-1h-1v-1.71a1 1 0 0 0 .27-.83c-.11-.69-.93-1.21-1.27-1.4v-1.1h-.5v1.11c-.73.39-1.15.84-1.24 1.34a1.17 1.17 0 0 0 .24.89v1.66h-.65l-1-1h-.85v-4.54h1v-3.5h-.6a2.57 2.57 0 0 0 .83-2c-.15-2.33-3.53-4.48-4.23-4.9V6.25h-.5v1.12c-3.14 2-4.67 3.77-4.54 5.3a2.31 2.31 0 0 0 .91 1.58h-.37v3.5h1v4.5h-.85l-1 1h-.65v-1.67a1 1 0 0 0 .27-.83c-.11-.69-.93-1.21-1.27-1.4v-1.1h-.5v1.11c-.73.39-1.15.84-1.24 1.34a1.17 1.17 0 0 0 .24.89v1.66h-1v1h-6.5v-1.67a1 1 0 0 0 .27-.83c-.11-.69-.93-1.21-1.27-1.4v-1.1h-.5v1.11c-.73.39-1.15.84-1.24 1.34a1.17 1.17 0 0 0 .24.89v1.66h-1v9.5h12v1h14.5v-1h12v-6.47zM37 20.78c.34.19 1 .62 1 1.05a.52.52 0 0 1-.15.42h-1.73a.64.64 0 0 1-.11-.48c.06-.33.4-.67.99-.99zm-.75 2h1.49v1.5h-1.49zm-.5 2h3v2.53h-.5v-.91a4.54 4.54 0 0 0-1.08-1.1l-.17-.12-.15.12a4.54 4.54 0 0 0-1.08 1.1v.87h-.51v-.87a4.54 4.54 0 0 0-1.08-1.1l-.18-.12-.15.12a4.54 4.54 0 0 0-1.08 1.1v.86h-.51v-.86a4.54 4.54 0 0 0-1.08-1.1l-.18-.12-.15.12a4.54 4.54 0 0 0-1.08 1.1v.85h-.51v-2.5zm3 5.57h-.5v-.95a4.54 4.54 0 0 0-1.08-1.1l-.17-.12-.15.12a4.54 4.54 0 0 0-1.08 1.1v.91h-.51v-.91a4.54 4.54 0 0 0-1.08-1.1l-.18-.12-.15.12a4.54 4.54 0 0 0-1.08 1.1v.91h-.51v-.91a4.54 4.54 0 0 0-1.08-1.1l-.18-.12-.15.12a4.54 4.54 0 0 0-1.08 1.1v.91h-.51v-2.56h9.5zm-1 0h-1.5v-.76a4.3 4.3 0 0 1 .75-.74 4.3 4.3 0 0 1 .75.74zm-3 0h-1.5v-.76a4.3 4.3 0 0 1 .75-.74 4.3 4.3 0 0 1 .75.74zm-3 0h-1.5v-.76a4.3 4.3 0 0 1 .75-.74 4.3 4.3 0 0 1 .75.74zm0-3.06h-1.5v-.69a4.3 4.3 0 0 1 .75-.74 4.3 4.3 0 0 1 .75.74zm3 0h-1.5v-.7a4.3 4.3 0 0 1 .75-.74 4.3 4.3 0 0 1 .75.74zm3 0h-1.5v-.71a4.3 4.3 0 0 1 .75-.74 4.3 4.3 0 0 1 .75.74zM27 19.78c.34.19 1 .62 1 1.05a.52.52 0 0 1-.15.42h-1.73a.64.64 0 0 1-.11-.48c.06-.33.4-.67.99-.99zm-.75 2h1.5v1.5h-1.5zm-10.54-9.16c-.08-.92.6-2.49 4.29-4.83.68.41 3.85 2.45 4 4.49a2.32 2.32 0 0 1-1.07 2h-5.88a2.23 2.23 0 0 1-1.34-1.66zm.54 4.63v-2.5h7.5v2.5h-7.5zm1 .5h5.5v1.46h-5.5zm0 2h5.5v2.54h-5.5zm-1.15 3h7.8l1.5 1.5H14.6zm9.65 10.5h-11.5v-.5h11.5zm-9-1h-.5v-5.5h.5zm4 0h-1.5v-5.5h1.5zm3 0h-.5v-5.5h.5zm.5 0v-6h-1.5v6h-1.5v-6h-2.5v6h-1.5v-6h-1.5v6h-.5v-7.5h9.5v7.5zM13 19.78c.34.19 1 .62 1 1.05a.52.52 0 0 1-.15.42h-1.73a.64.64 0 0 1-.11-.48c.06-.33.4-.67.99-.99zm-.75 2h1.5v1.5h-1.5zm-2.5 8.46h-1.5v-.66a4.3 4.3 0 0 1 .75-.76 4.3 4.3 0 0 1 .75.74zm.48-.81a4.54 4.54 0 0 0-1.08-1.1L9 28.18l-.15.12a4.54 4.54 0 0 0-1.08 1.1v.82h-.52v-.82a4.54 4.54 0 0 0-1.08-1.1L6 28.18l-.15.12a4.54 4.54 0 0 0-1.08 1.1v.83h-.52v-.83a4.54 4.54 0 0 0-1.08-1.1L3 28.18l-.15.12a4.54 4.54 0 0 0-1.08 1.1v.84h-.52v-2.5h9.5v2.48h-.5v-.72zm-3.48.82h-1.5v-.67a4.3 4.3 0 0 1 .75-.76 4.3 4.3 0 0 1 .75.74zm-3 0h-1.5v-.69a4.3 4.3 0 0 1 .75-.74 4.3 4.3 0 0 1 .75.74zm0-3h-1.5v-.69a4.31 4.31 0 0 1 .75-.74 4.3 4.3 0 0 1 .75.74zm3 0h-1.5v-.68a4.3 4.3 0 0 1 .75-.75 4.3 4.3 0 0 1 .75.74zm3 0h-1.5v-.67a4.3 4.3 0 0 1 .75-.76 4.3 4.3 0 0 1 .75.74zM3 20.78c.34.19 1 .62 1 1.05a.52.52 0 0 1-.15.42H2.12a.64.64 0 0 1-.12-.48c.07-.33.41-.67 1-.99zm-.75 2h1.5v1.5h-1.5zm-.5 2h9v2.48h-.5v-.86a4.54 4.54 0 0 0-1.08-1.1L9 25.18l-.15.12a4.54 4.54 0 0 0-1.08 1.1v.83h-.52v-.83a4.54 4.54 0 0 0-1.08-1.1L6 25.18l-.15.12a4.54 4.54 0 0 0-1.08 1.1v.84h-.52v-.84a4.49 4.49 0 0 0-1.07-1.1L3 25.19l-.15.12a4.5 4.5 0 0 0-1.08 1.1v.84h-.52v-2.5zm.5 8.5v-.69a4.3 4.3 0 0 1 .75-.77 4.3 4.3 0 0 1 .75.74v.69zm3 0v-.69a4.3 4.3 0 0 1 .75-.77 4.3 4.3 0 0 1 .75.74v.69zm3 0v-.69a4.3 4.3 0 0 1 .75-.77 4.3 4.3 0 0 1 .75.74v.69zm2 0v-.88a4.54 4.54 0 0 0-1.08-1.1L9 31.18l-.15.12a4.54 4.54 0 0 0-1.08 1.1v.85h-.52v-.85a4.54 4.54 0 0 0-1.08-1.1L6 31.18l-.15.12a4.54 4.54 0 0 0-1.08 1.1v.85h-.52v-.85a4.54 4.54 0 0 0-1.08-1.1L3 31.18l-.15.12a4.54 4.54 0 0 0-1.08 1.1v.85h-.52v-2.5h9.5v2.54zm1-9.5h3.15l-1 1h1.35v7.5h-1v1h-2.5zm15.5 10.5h-13.5v-.5h13.5zm-.5-1v-1h-1v-7.5h1.35l-1-1h3.15v9.5zm4 0v-.69a4.3 4.3 0 0 1 .75-.74 4.3 4.3 0 0 1 .75.74v.69zm3 0v-.69a4.3 4.3 0 0 1 .75-.74 4.3 4.3 0 0 1 .75.74v.69zm3 0v-.69a4.3 4.3 0 0 1 .75-.74 4.3 4.3 0 0 1 .75.74v.69zm2 0v-.88a4.54 4.54 0 0 0-1.08-1.1l-.17-.12-.15.12a4.54 4.54 0 0 0-1.08 1.1v.85h-.51v-.85a4.54 4.54 0 0 0-1.08-1.1l-.18-.12-.15.12a4.54 4.54 0 0 0-1.08 1.1v.85h-.51v-.85a4.54 4.54 0 0 0-1.08-1.1l-.18-.12-.15.12a4.54 4.54 0 0 0-1.08 1.1v.85h-.51v-2.43h9.5v2.43z" fill="#3f474e"></path></svg>