<svg xmlns="http://www.w3.org/2000/svg" viewBox="-1 -1 43 42" id="icon-ncr"><g fill="#3F474E"><path d="M31.75 35.25v-1.5h.75v-.5h-.75v-19h-2v-3h-1v-4h-2v-2H24.7c-.26-1.14-2.22-2-4.7-2s-4.44.86-4.7 2h-2.05v2h-2v4h-1v3h-2v19H7.5v.5h.75v1.5H6.5v.5h27v-.5h-1.75zM20 3.75c2.25 0 3.88.75 4.2 1.5h-8.4c.3-.75 1.93-1.5 4.18-1.5zm-6.25 2h12.5v1.5h-12.5v-1.5zm-2 2h16.5v3.5h-16.5v-3.5zm-1 4h18.5v2.5h-18.5v-2.5zm-.5 23.5h-1.5v-1.5h1.5v1.5zm4 0h-3.5v-1.5h3.5v1.5zm0-2h-3.5v-5.5h3.5v5.5zm0-6h-3.5v-1.5h3.5v1.5zm0-2h-3.5v-.73c0-.42.35-.77.77-.77h1.96c.43 0 .77.35.77.77v.73zm2 10h-1.5v-1.5h1.5v1.5zm7-2h-.75v.5h.75v1.5h-6.5v-1.5h.75v-.5h-.75V24a3.25 3.25 0 1 1 6.5 0v9.25zm2 2h-1.5v-1.5h1.5v1.5zm4 0h-3.5v-1.5h3.5v1.5zm0-2h-3.5v-5.5h3.5v5.5zm0-6h-3.5v-1.5h3.5v1.5zm0-2h-3.5v-.73c0-.42.35-.77.77-.77h1.96c.43 0 .77.35.77.77v.73zm2 10h-1.5v-1.5h1.5v1.5zm0-2h-1.5v-5.5h.75v-.5h-.75v-1.5h.75v-.5h-.75v-.73c0-.7-.57-1.27-1.27-1.27h-1.96c-.7 0-1.27.57-1.27 1.27v.73h-.75v.5h.75v1.5h-.75v.5h.75v5.5h-1.5V24a3.75 3.75 0 0 0-7.5 0v9.25h-1.5v-5.5h.75v-.5h-.75v-1.5h.75v-.5h-.75v-.73c0-.7-.57-1.27-1.27-1.27h-1.96c-.7 0-1.27.57-1.27 1.27v.73H9.5v.5h.75v1.5H9.5v.5h.75v5.5h-1.5v-14.5h22.5v14.5zm0-15H8.75v-2.5h22.5v2.5zm0-3H8.75v-.5h22.5v.5z"></path><path d="M12.5 21.75a1.25 1.25 0 1 0 0-2.5 1.25 1.25 0 0 0 0 2.5zm0-2c.4 0 .75.34.75.75s-.34.75-.75.75-.75-.34-.75-.75.34-.75.75-.75zm15 2a1.25 1.25 0 1 0 0-2.5 1.25 1.25 0 0 0 0 2.5zm0-2c.4 0 .75.34.75.75s-.34.75-.75.75-.75-.34-.75-.75.34-.75.75-.75zm-12.25-9h9.5v-2.5h-9.5v2.5zm.5-2h8.5v1.5h-8.5v-1.5z"></path></g></svg>