<svg xmlns="http://www.w3.org/2000/svg" viewBox="-1 -1 42 42" id="icon-ahd"><g fill="#3F474E"><path d="M4.03 28.09c.5 0 .9-.4.9-.9s-.4-.9-.9-.9-.9.4-.9.9.4.9.9.9zm0-1.3c.22 0 .4.18.4.4s-.18.4-.4.4c-.22 0-.4-.18-.4-.4s.18-.4.4-.4zm6.77 1.3c.5 0 .9-.4.9-.9s-.4-.9-.9-.9-.9.4-.9.9.4.9.9.9zm0-1.3c.22 0 .4.18.4.4s-.18.4-.4.4-.4-.18-.4-.4.18-.4.4-.4zm18.46 1.29c.5 0 .9-.4.9-.9s-.4-.9-.9-.9-.9.4-.9.9.4.9.9.9zm0-1.3c.22 0 .4.18.4.4s-.18.4-.4.4-.4-.18-.4-.4.18-.4.4-.4zm6.77 1.3c.5 0 .9-.4.9-.9s-.4-.9-.9-.9-.9.4-.9.9.41.9.9.9zm0-1.3c.22 0 .4.18.4.4s-.18.4-.4.4-.4-.18-.4-.4.18-.4.4-.4z"></path><path d="M38.48 35.48l.02-.12V25.24c0-.27-.2-.48-.45-.53l-.01-.67c0-.03.02-.7-.59-1.08l-.11-.07-.12.05c-.02.01-.6.26-.61 1.09l.02.66h-.35a3.48 3.48 0 0 0-3.17-4.18V20h-.5v.51a3.5 3.5 0 0 0-3.17 4.18h-.39l-.01-.66c0-.03.02-.7-.59-1.08l-.11-.07-.12.05c-.02.01-.6.26-.61 1.09l.02.66h-.38V21.6h.5l-.5-1.34v-2.34h-.47v-4.9h.31v-.5h-.76l-.03-1.32.49-.92-.92-1.02.01-.98-.5-.01-.01 1.04-.93 1.01.49.9.01 1.31h-.77v.5h.32v4.9h-.47v2.55l-.3.66a5.25 5.25 0 0 0-3.5-1.6v-1.1h-.5v1.1a5.14 5.14 0 0 0-3.44 1.53l-.3-.8v-2.34h-.47v-4.9h.33v-.5h-.78l-.01-1.32.49-.92-.92-1.02.01-.98-.5-.01V9.3l-.93 1.01.49.9.01 1.31h-.75v.5h.3v4.9h-.47v2.4l-.49 1.28h.49v3.09h-.37l-.01-.66c0-.03.02-.7-.59-1.08l-.11-.07-.12.05c-.02.01-.6.26-.61 1.09l.02.66h-.4a3.48 3.48 0 0 0-3.17-4.18v-.59h-.5v.59a3.5 3.5 0 0 0-3.17 4.18h-.33l-.01-.66c0-.03.02-.7-.59-1.08l-.12-.05-.12.05c-.02.01-.6.26-.61 1.09l.02.68a.54.54 0 0 0-.44.53v10.12l.02.12H.81v.5h38.38v-.5h-.71zm-10.18-12c.23.22.23.53.23.55l.01.59h-.43l-.01-.6c0-.28.11-.45.2-.54zm-2.5-12.23l.01 1.23h-.37l-.01-1.23h.37zm-.16-1.5l.55.61-.21.39h-.75l-.18-.36.59-.64zm-.65 7.8h1.27v.36h-1.27v-.36zm1.27-.5h-1.27v-3.98h1.27v3.98zm-11.7-5.8l.01 1.23h-.37l-.01-1.23h.37zm-.16-1.5l.55.61-.21.39h-.75l-.18-.36.59-.64zm-.65 7.8h1.27v.36h-1.27v-.36zm1.27-.5h-1.27v-3.98h1.27v3.98zm-3.35 6.43c.23.22.23.53.23.55l.01.59h-.43l-.01-.6a.83.83 0 0 1 .2-.54zm-6.09 7.96c0-.02-.1-1.89.75-2.8.29-.32.66-.47 1.12-.48.37.01.7.12.96.39.84.86.78 2.82.78 2.85l-.02 4.02H5.61l-.03-3.98zm7.71 1.42l2.2.02v2.45h-2.2v-2.47zm2.2-.48l-2.2-.02V25.2h2.2v7.18zm.5-7.19h8.04v10.22h-.86l.04-7.19c0-1.56-1.42-2.84-3.18-2.84-1.75 0-3.18 1.27-3.18 2.84v7.19h-.87V25.19zm-2.97-4.09l.16-.42h2.42l.16.42h-2.74zm2.47-2.68v1.75h-2.2v-1.75h2.2zm.5 5.52h8.04v.75h-8.04v-.75zm.89-1.02c0-.2.12-.31.2-.37.23.15.23.33.23.37l.01.38h-.43l-.01-.38zm2.73-.04c0-.2.12-.31.2-.37.23.15.23.33.23.37l.01.38h-.43l-.01-.38zm2.68.02c0-.2.12-.31.2-.37.22.15.23.33.23.37l.01.38h-.43l-.01-.38zm2.24 12.42v-2.46l2.2.02v2.44h-2.2zm0-2.96v-7.17h2.2v7.19l-2.2-.02zm6.29-.92c0-.02-.1-1.89.75-2.8.29-.32.66-.47 1.12-.48.39-.02.7.12.96.39.84.86.78 2.82.78 2.85l-.02 4.02h-3.56l-.03-3.98zm-8.15 3.97h-5.31v-7.19c0-1.29 1.2-2.34 2.68-2.34s2.68 1.05 2.68 2.34l-.05 7.19zM37.3 23.48c.23.22.23.53.23.55l.01.59h-.43l-.01-.6c0-.28.11-.45.2-.54zm-7.45.49a3 3 0 0 1 6 0c0 .24-.04.49-.1.72h-.71l-.01-.66c0-.03.02-.7-.59-1.08l-.11-.07-.12.05c-.02.01-.6.26-.61 1.09l.02.66h-1.57l-.01-.66c0-.03.02-.7-.59-1.08l-.11-.07-.12.05c-.02.01-.6.26-.61 1.09l.02.66h-.67a2.28 2.28 0 0 1-.11-.7zm4.25.06a.8.8 0 0 1 .2-.55c.23.22.23.53.23.55l.01.59h-.43l-.01-.59zm-3 0a.8.8 0 0 1 .2-.55c.23.22.23.53.23.55l.01.59h-.43l-.01-.59zm6.85 1.16c.03 0 .05.02.05.05v10.12c0 .03-.02.05-.05.05h-3.04l.02-4.01c0-.09.07-2.19-.92-3.21a1.8 1.8 0 0 0-1.33-.54c-.6.01-1.09.22-1.48.64-.99 1.07-.89 3.08-.88 3.16l.03 3.96h-3.12v-2.52h.33v-.5h-.33v-7.2h10.72zm-11.22-.5h-2.2V21.6h2.2v3.09zm0-6.27v1.75h-2.2v-1.75h2.2zm-2.25 2.26h2.37l.16.42h-2.72l.19-.42zm-4.5-.67c1.66 0 3.21.89 4.05 2.32v1.1h-.79l-.01-.53c.01-.22-.11-.64-.62-.88l-.09-.04-.09.03a.92.92 0 0 0-.63.89l.02.53h-1.25l-.02-.55c.01-.22-.11-.64-.62-.88l-.09-.04-.09.04a.92.92 0 0 0-.63.89l.02.55h-1.3l-.01-.51c.01-.22-.11-.64-.62-.88l-.09-.04-.09.03a.92.92 0 0 0-.63.89l.02.52h-.41v-1.21c.14-.23.31-.44.48-.63h.02l-.01-.01a4.53 4.53 0 0 1 3.48-1.59zm-6.69 1.59h2.2v3.09h-2.2V21.6zm-.5 10.75h-.3v.5h.3v2.56H9.67l.03-4.01c0-.09.07-2.19-.92-3.21a1.72 1.72 0 0 0-1.33-.54c-.6.01-1.09.22-1.48.64-.99 1.07-.89 3.08-.89 3.16l.03 3.96H2.1c-.03 0-.05-.02-.05-.05V25.24c0-.03.02-.05.05-.05h10.69v7.16zm-7.32-8.32c0-.29.11-.46.2-.55.23.22.23.53.23.55l.01.59h-.42l-.02-.59zm3 0c0-.29.11-.46.2-.55.23.22.23.53.23.55l.01.59h-.42l-.02-.59zm-4.29-.06a3 3 0 0 1 6 0c0 .25-.04.49-.1.72h-.66l-.01-.66c0-.03.02-.7-.59-1.08l-.12-.06-.12.05c-.02.01-.6.26-.61 1.09l.02.66H6.42l-.01-.66c0-.03.02-.7-.59-1.08l-.12-.06-.12.05c-.02.01-.6.26-.61 1.09l.02.66h-.72a2.84 2.84 0 0 1-.09-.72zm-1.51-.49c.23.22.23.53.23.55l.01.59h-.42l-.01-.6c0-.28.11-.45.19-.54z"></path></g></svg>