<svg xmlns="http://www.w3.org/2000/svg" viewBox="-1 -1 43 42" id="icon-hyd"><g fill="#3F474E"><ellipse cx="16" cy="17.5" rx="1" ry=".5"></ellipse><ellipse cx="19" cy="17.5" rx="1" ry=".5"></ellipse><ellipse cx="22" cy="17.5" rx="1" ry=".5"></ellipse><ellipse cx="25" cy="17.5" rx="1" ry=".5"></ellipse><path d="M32.75 24.25v-5h-1v-5.5h.75v-.5h-.75v-2.5h.75v-.5h-1.75v-3.8c.2-.27.33-.6.33-.97 0-.6-.37-.8-.73-1.02-.2-.1-.4-.24-.6-.43V2h-.5v2.03c-.2.2-.42.32-.6.43-.36.2-.73.42-.73 1.02 0 .36.12.7.33.97v3.8H26.5v.5h.75v2.5h-.75v.5h.75v1.5h-13.5v-1.5h.75v-.5h-.75v-2.5h.75v-.5h-1.75v-3.8c.2-.27.33-.6.33-.97 0-.6-.37-.8-.73-1.02-.2-.1-.4-.24-.6-.43V2h-.5v2.03c-.2.2-.42.32-.6.43-.36.2-.73.42-.73 1.02 0 .36.12.7.33.97v3.8H8.5v.5h.75v2.5H8.5v.5h.75v5.5h-1v5H7.5v.5h1.75v10.5H8.5v.5h24v-.5h-.75v-10.5h1.75v-.5h-.75zm-.5-4.5v4.5h-4.5v-4.5h4.5zm-19 15.5h-1.5v-10.5h1.5v10.5zm.5-15.5h13.5v4.5h-1.5v-2.3h-1.5v2.3h-1.5v-2.3h-1.5v2.3h-1.5v-2.3h-1.5v2.3h-1.5v-2.3h-1.5v2.3h-1.5v-4.5zm11 4.5v-1.8h.5v1.8h-.5zm-3 0v-1.8h.5v1.8h-.5zm-3 0v-1.8h.5v1.8h-.5zm-3 0v-1.8h.5v1.8h-.5zm13.5.5v10.5h-1.5v-10.5h1.5zM28.9 4.9c.17-.1.38-.22.6-.4h.02c.2.18.42.3.6.4.35.2.47.3.47.58 0 .3-.14.57-.35.77h-1.5c-.2-.2-.33-.47-.33-.77 0-.3.1-.37.48-.58zm-.15 1.85h1.5v3.5h-1.5v-3.5zm-1 4h3.5v2.5h-3.5v-2.5zm3.5 3v5.5h-3.5v-5.5h3.5zm-4 2v3.5h-13.5v-3.5h13.5zM10.9 4.9c.17-.1.38-.22.6-.4h.02c.2.18.42.3.6.4.35.2.47.3.47.58 0 .3-.14.57-.35.77h-1.5c-.2-.2-.33-.47-.33-.77 0-.3.1-.37.48-.58zm-.15 1.85h1.5v3.5h-1.5v-3.5zm-1 4h3.5v2.5h-3.5v-2.5zm0 3h3.5v5.5h-3.5v-5.5zm-1 6h4.5v4.5h-4.5v-4.5zm1 5h1.5v10.5h-1.5v-10.5zm7 10.5V29.5c0-.52 1.1-1.1 2.06-1.63.66-.35 1.27-.68 1.7-1.03.42.36 1.04.7 1.7 1.03.96.52 2.05 1.1 2.05 1.63v5.75h-7.5zm5.67-7.82a8.59 8.59 0 0 1-1.75-1.1l-.18-.2-.2.2c-.36.36-1.06.73-1.74 1.1-1.2.64-2.33 1.25-2.33 2.07v5.75h-2.5v-10.5h1.5v.05h1.5v-.05h1.5v.05h1.5v-.05h1.5v.05h1.5v-.05h1.5v.05h1.5v-.05h1.5v10.5h-2.5V29.5c.02-.82-1.1-1.42-2.3-2.07zm8.83 7.82h-1.5v-10.5h1.5v10.5z"></path></g></svg>