<svg xmlns="http://www.w3.org/2000/svg" viewBox="-1 -1 43 42" id="icon-mumbai"><path fill="#3F474E" d="M39 19.75v-.5h-.75v-1h-10v-9h-.05c-.1-.48-.47-.85-.95-.95v-.8h-.5v.8c-.48.1-.85.47-.95.95h-.05v4h-11.5v-4h-.05c-.1-.48-.47-.85-.95-.95v-.8h-.5v.8c-.48.1-.85.47-.95.95h-.05v9h-10v1H1v.5h.75v2.5H1v.5h.75v12.5H1v.5h38v-.5h-.75v-12.5H39v-.5h-.75v-2.5H39zm-1.25-1v.5h-8.5v-.5h8.5zm-9 0v3.5h-3.5v-3.5h3.5zm5.5 5.5v-1.5h1.5v1.5h-1.5zm-.5 0h-1.5v-1.5h1.5v1.5zm-2 0h-1.5v-1.5h1.5v1.5zm-2 0h-.5v-1.5h.5v1.5zm-1 6h-3.5v-7.5h3.5v7.5zm-3.5.5h3.5v1.5h-3.5v-1.5zm-10-12.5h-1v-3.5h11.5v3.5h-10.5zm.5.5v1.75h.5v-1.75h1.5v1.75h.5v-1.75h1.5v1.75h.5v-1.75h1.5v1.75h.5v-1.75h1.5v1.75h.5v-1.75h.5v3.5h-9.5v-3.5h.5zm10.5-.5v-3.5h1.5v3.5h-1.5zm1.5-4h-1.5v-4.5h1.5v4.5zM27 8.75c.32 0 .6.2.7.5h-1.4c.1-.3.38-.5.7-.5zm-1.25 5v.5h-11.5v-.5h11.5zm-12 .5h-1.5v-4.5h1.5v4.5zM13 8.75c.32 0 .6.2.7.5h-1.4c.1-.3.38-.5.7-.5zm-.75 6h1.5v3.5h-1.5v-3.5zm-.5 4h3v3.5h-3.5v-3.5h.5zm-.5 12h3.5v1.5h-3.5v-1.5zm3.5-.5h-3.5v-7.5h3.5v7.5zm-10-7.5v1.5h-1.5v-1.5h1.5zm.5 0h1.5v1.5h-1.5v-1.5zm2 0h1.5v1.5h-1.5v-1.5zm2 0h1.5v1.5h-1.5v-1.5zm-7-4h8.5v.5h-8.5v-.5zm0 1h8.5v2.5h-8.5v-2.5zm.5 3v1.5h-.5v-1.5h.5zm2.5 12.5V32a1.25 1.25 0 0 1 2.5 0v3.25h-2.5zm3 0V32c0-.96-.8-1.75-1.75-1.75s-1.75.8-1.75 1.75v3.25h-.5v-5.5h4.5v5.5h-.5zm-4-6.25a2.25 2.25 0 1 1 4.5 0l-.03.25H4.28L4.25 29zm5 6.25v-6h-.02l.02-.25a2.75 2.75 0 1 0-5.5 0l.02.25h-.02v6h-1.5v-10.5h8.5v5.5H10v.5h.75v4.5h-1.5zm2 0v-2.5h3.5v2.5h-3.5zm11.5 0h-5.5v-8.2c0-1.42 1.23-2.57 2.75-2.57s2.75 1.15 2.75 2.57v8.2zm.5 0v-8.2c0-1.7-1.46-3.07-3.25-3.07s-3.25 1.38-3.25 3.07v8.2h-1.5v-12.5h9.5v12.5h-1.5zm2 0v-2.5h3.5v2.5h-3.5zm7 0V32a1.25 1.25 0 0 1 2.5 0v3.25h-2.5zm3 0V32c0-.96-.8-1.75-1.75-1.75s-1.75.8-1.75 1.75v3.25h-.5v-5.5h4.5v5.5h-.5zm-4-6.25a2.25 2.25 0 1 1 4.5 0l-.03.25h-4.45l-.02-.25zm5 6.25v-6h-.02l.02-.25a2.75 2.75 0 1 0-5.5 0l.02.25h-.02v6h-1.5v-4.5H30v-.5h-.75v-5.5h8.5v10.5h-1.5zm1.5-11h-1.5v-1.5h1.5v1.5zm0-2h-8.5v-2.5h8.5v2.5z"></path></svg>